<?xml version="1.0" encoding="utf-8"?>
<!-- Generator: Adobe Illustrator 26.5.1, SVG Export Plug-In . SVG Version: 6.00 Build 0)  -->
<svg version="1.1" id="Layer_1" xmlns="http://www.w3.org/2000/svg" xmlns:xlink="http://www.w3.org/1999/xlink" x="0px" y="0px"
	 viewBox="0 0 34 34" style="enable-background:new 0 0 34 34;" xml:space="preserve">
<style type="text/css">
	.st0{fill:#BD2334;}
	.st1{fill:#FFFFFF;}
</style>
<g>
	<circle class="st0" cx="17" cy="17" r="17"/>
	<g>
		<path class="st1" d="M5.6,24.6c-0.2-0.2-0.3-0.3-0.3-0.3c0,0,0-0.1,0-0.1c0-0.1,0-0.1,0-0.2c0-0.2,0-0.5,0.1-0.8
			c0.2-1.3,0.3-2,0.4-2.2c0.1-0.1,0.1-0.2,0.1-0.4c0-0.1,0-0.1-0.1-0.1c-0.1,0-0.2,0-0.2,0.1c0,0-0.1,0.1-0.1,0.1
			c-0.1,0.1-0.1,0.1-0.2,0.1c-0.1,0-0.2-0.1-0.2-0.3c0-0.4,0.1-0.6,0.3-0.6c0.7-0.5,1.1-0.8,1.1-0.8c0-0.1,0-0.2,0.1-0.4
			c0.2-0.5,0.3-0.9,0.4-1c0.1-0.4,0.2-0.8,0.3-1c0.1-0.2,0.1-0.4,0.2-0.6c0.1-0.1,0.2-0.3,0.2-0.4c0-0.1,0-0.2,0-0.3
			c0-0.1,0-0.2,0.1-0.3c0.3-0.7,0.6-1.9,0.9-3.8c0-0.2,0.1-0.3,0.3-0.5c0.1-0.1,0.2-0.1,0.3-0.1c0.1,0,0.2,0,0.3,0.1
			c0.1,0.1,0.2,0.2,0.3,0.3c0.1,0.2,0.1,0.3,0.1,0.5c-0.1,0.8-0.2,1.3-0.3,1.6c-0.1,0.1-0.1,0.2-0.1,0.4c-0.1,0.6-0.3,1-0.4,1.1
			c-0.1,0-0.2,0.4-0.3,1.1c-0.1,0.7-0.3,1.2-0.4,1.4c-0.1,0.2-0.2,0.4-0.2,0.6v0l0.4-0.3l1.1-0.9c0-0.1,0.2-0.2,0.6-0.6
			c0.1-0.1,0.2-0.1,0.2-0.2c0,0,0.3-0.3,0.9-0.9c0.3-0.3,0.6-0.6,0.7-0.8c0.2-0.2,0.3-0.4,0.5-0.6c0.2-0.2,0.3-0.3,0.3-0.3
			c0.1,0,0.1-0.1,0.1-0.1c0-0.1,0-0.1,0-0.2c0,0,0-0.1,0.1-0.1c0.1,0,0.2-0.3,0.4-0.7c0.1-0.2,0.1-0.5,0.1-0.8c0-0.3,0-0.6-0.1-0.9
			c-0.1-0.5-0.2-0.8-0.4-0.9c0,0-0.1-0.1-0.1-0.1c0,0-0.1-0.1-0.2-0.2c-0.1-0.1-0.3-0.2-0.6-0.3c-0.3-0.1-0.7-0.2-1-0.2
			c-0.3,0-0.6,0-0.7,0c-0.2,0-0.3,0.1-0.5,0.2C10,9.1,9.9,9.2,9.9,9.2c-0.2,0-0.6,0.1-1.2,0.4c-0.5,0.4-1,0.8-1.4,1.2l-0.5,0.4
			c0,0,0,0.1-0.1,0.1c-0.6,0.6-1.1,1.4-1.3,2.3c-0.1,0.3-0.1,0.8-0.1,1.5l0,0.2c0,0.1,0,0.3,0.1,0.4c0.1,0.2,0.2,0.3,0.2,0.4
			c0.1,0.1,0.1,0.2,0.1,0.3c0,0.1-0.1,0.2-0.2,0.3C5.5,16.9,5.4,17,5.2,17c-0.4,0-0.7-0.3-0.8-1c-0.1-0.3-0.1-0.5-0.2-0.6v-0.2
			c0-0.1,0-0.3,0-0.6c0-0.1,0-0.2,0-0.2c0-0.2,0-0.5,0.1-1c0.1-0.5,0.1-0.7,0.2-0.8c0.1,0,0.2-0.2,0.2-0.4c0.2-0.5,0.3-0.8,0.5-0.9
			c0.1-0.1,0.2-0.2,0.2-0.3c0-0.1,0.1-0.2,0.3-0.3C5.9,10.9,6,10.8,6,10.8c0-0.1,0.1-0.1,0.1-0.2c0,0,0.3-0.3,0.7-0.6
			c0.5-0.4,0.8-0.7,1-0.8c0.4-0.3,1-0.6,1.7-0.9C10,8.1,10.3,8,10.4,7.9c0.1-0.1,0.5-0.1,1.1-0.1c0.9,0,1.6,0.2,2.1,0.5
			C13.8,8.4,14,8.5,14,8.6c0,0.1,0.1,0.1,0.3,0.2c0.1,0.1,0.2,0.1,0.2,0.2c0,0.1,0.1,0.2,0.2,0.3c0.3,0.4,0.5,1,0.5,1.7
			c0,0.5-0.2,1.2-0.6,1.9c-0.4,0.7-0.7,1.1-0.8,1.2c-0.1,0.1-0.2,0.2-0.3,0.3c-0.1,0.1-0.2,0.3-0.5,0.5l-0.3,0.3
			c0,0.1-0.6,0.7-1.7,1.6c-0.6,0.6-1,1-1.3,1.2c-1.4,1-2.2,1.6-2.2,1.8c0,0.1,0,0.2-0.1,0.2c-0.1,0-0.1,0.2-0.2,0.5
			c0,0.1-0.1,0.3-0.1,0.4c0,0.1,0,0.2-0.1,0.2c0,0-0.1,0.2-0.2,0.5c-0.2,0.7-0.3,1.3-0.3,1.8c0,0.2,0,0.3,0.1,0.4
			c0.1,0.1,0.1,0.2,0.1,0.2c-0.1,0.2-0.2,0.3-0.3,0.3l-0.5,0.2C5.8,24.5,5.7,24.6,5.6,24.6z"/>
		<path class="st1" d="M14.6,23.7h-0.2c-0.6-0.4-1-1.1-1-2.1c0-0.2,0-0.3,0.1-0.4c0-0.1,0.1-0.1,0.1-0.2l0-0.1v-0.4l0.3-2l0.2-0.7
			c0.1-0.2,0.1-0.3,0.1-0.4c0-0.3,0-0.4,0-0.5c0-0.3,0-0.4,0-0.5c0-0.1,0-0.1,0-0.1c0,0,0-0.1,0-0.1c0,0,0-0.1,0.1-0.2
			c0.3-0.3,0.4-0.6,0.4-0.8V15l0-0.2c0.2-0.3,0.3-0.6,0.3-0.9c0-0.1,0-0.2,0.1-0.4c0.1-0.2,0.1-0.3,0.1-0.4c0-0.1,0-0.2,0-0.2
			c0,0,0,0,0-0.1c0,0,0.1-0.2,0.2-0.5c0.1-0.3,0.2-0.5,0.2-0.6c0-0.1,0.1-0.1,0.1-0.1v0c0,0,0,0,0,0l0.3-0.6
			c0.2-0.4,0.3-0.6,0.3-0.7c0-0.1,0.1-0.2,0.2-0.4c0.5-0.7,0.7-1.1,0.7-1.2c0-0.1,0.1-0.3,0.2-0.5l0.2-0.3c0-0.1,0.1-0.2,0.3-0.3
			c0.1-0.1,0.3-0.1,0.7-0.1c0.4,0.1,0.6,0.4,0.6,1c0,0.3-0.1,0.6-0.2,1.2l-0.4,1.1L18.6,11c-0.6,1.4-1.2,2.5-1.7,3.3
			c0,0.1-0.1,0.1-0.1,0.2c0,0.1-0.1,0.2-0.2,0.2c-0.1,0.2-0.2,0.4-0.5,0.6c-0.5,0.5-0.7,1-0.7,1.3l-0.1,0.2c0,0,0,0.1,0,0.2
			c0,0.1-0.1,0.2-0.2,0.3c-0.1,0.1-0.2,0.4-0.2,0.6c0,0.3-0.1,0.5-0.2,0.7c-0.1,0.2-0.2,0.6-0.2,1.2c0,0,0,0.3,0,0.8
			c0,0.5,0,0.9,0,1.1l0,0.4c0,0,0,0.1,0,0.1c0,0.1,0.1,0.1,0.2,0.1h0c0,0,0.1,0,0.2-0.1c0.1,0,0.2-0.1,0.3-0.1
			c0.1,0,0.2-0.1,0.2-0.2c0.1-0.1,0.1-0.1,0.2-0.1c0.1,0,0.1,0,0.1-0.1c0-0.1,0-0.1,0.1-0.1c0,0,0,0,0.1,0c0,0,0.1-0.1,0.2-0.2
			c0,0,0.1-0.2,0.4-0.5c0.1-0.1,0.2-0.3,0.3-0.3s0.1-0.2,0.2-0.2c0.1-0.1,0.2-0.2,0.3-0.3l0.1-0.1c0-0.1,0.2-0.2,0.4-0.5
			c0,0,0,0,0,0c0,0,0-0.1,0.1-0.1c0.1,0,0.1-0.1,0.2-0.2c0.1-0.1,0.1-0.1,0.2-0.1c0,0,0.1,0,0.2-0.1h0.2l0.1,0.2
			c0,0.1,0,0.2-0.1,0.3c-0.1,0.1-0.1,0.2-0.2,0.3c0,0,0,0,0,0c-0.1,0.1-0.1,0.2-0.1,0.2c0,0,0,0-0.1,0.1c-0.1,0.1-0.1,0.1-0.2,0.2
			c-0.1,0.1-0.2,0.2-0.3,0.4c-0.2,0.2-0.3,0.3-0.4,0.5c-0.1,0.2-0.2,0.3-0.3,0.4c-0.1,0.1-0.1,0.2-0.2,0.2C17,21.9,16.9,22,16.8,22
			c-0.1,0.1-0.1,0.1-0.2,0.2c0,0.1-0.1,0.1-0.2,0.2c-0.3,0.3-0.4,0.4-0.4,0.4h0c0,0,0,0.1,0,0.1c0,0,0,0.1-0.1,0.1
			c-0.1,0.1-0.2,0.1-0.3,0.2C15.3,23.6,14.9,23.7,14.6,23.7z M16.9,12.3c0.1,0,0.1,0,0.1-0.1l0-0.1L16.9,12.3L16.9,12.3z M17,11.8
			c0.1,0,0.2-0.2,0.5-0.6c0.1-0.2,0.2-0.4,0.2-0.4c0,0,0.1,0,0.1-0.1c0-0.1,0-0.2-0.1-0.2c-0.1,0-0.2,0.2-0.4,0.6l0,0.2
			C17.1,11.6,17,11.7,17,11.8z"/>
		<path class="st1" d="M19.1,22.8l-0.4,0c-0.2,0-0.3-0.1-0.4-0.3c-0.1-0.2-0.2-0.3-0.2-0.4c0-0.1-0.1-0.3-0.1-0.5
			c0-0.3,0-0.6,0.1-0.9c0.1-0.5,0.1-0.7,0.2-0.8c0.1-0.1,0.1-0.2,0.1-0.3c0-0.2,0.1-0.4,0.2-0.8c0.1-0.1,0.1-0.3,0.2-0.6
			c0.1-0.3,0.2-0.5,0.2-0.6c0.1-0.1,0.1-0.2,0.1-0.3c0-0.1,0-0.2,0.1-0.3c0.1-0.1,0.1-0.2,0.1-0.4c0-0.1,0.1-0.2,0.2-0.3
			c0-0.1,0.1-0.1,0.3-0.1c0.3,0.1,0.5,0.2,0.6,0.3c0.1,0.1,0.1,0.2,0.1,0.5c0,0.2,0,0.3,0,0.3c-0.2,0.2-0.5,0.7-0.7,1.5
			c-0.2,0.1-0.3,0.4-0.3,0.8c0,0.1,0,0.1-0.1,0.1c0,0-0.1,0.3-0.2,0.9c-0.1,0.3-0.1,0.5-0.1,0.6c0,0.1,0,0.2,0,0.3
			c0,0.1,0,0.1,0,0.2c0,0.1,0,0.1,0.1,0.1c0,0,0.1,0,0.2,0c0.1,0,0.2-0.1,0.3-0.2c0.2-0.3,0.3-0.4,0.4-0.4c0.1,0,0.1-0.1,0.1-0.1
			c0-0.1,0.1-0.2,0.3-0.3c0.2-0.1,0.4-0.4,0.7-0.8c0.1-0.1,0.1-0.1,0.1-0.1c0,0,0-0.1,0.2-0.2c0.1-0.1,0.2-0.3,0.3-0.6
			c0.2-0.1,0.3-0.2,0.3-0.3c0-0.1,0.1-0.2,0.3-0.4c0.2-0.3,0.3-0.5,0.3-0.6c0-0.1,0.1-0.2,0.2-0.3c0.1-0.1,0.1-0.2,0.1-0.5
			c0-0.4,0.2-0.6,0.7-0.8c0.4,0.1,0.6,0.3,0.6,0.6c0,0.1,0,0.2,0.1,0.3c-0.1,0.2-0.2,0.6-0.5,1.1c-0.1,0.1-0.1,0.2-0.1,0.2
			c0,0,0,0.1-0.1,0.2c0,0.1-0.1,0.2-0.1,0.4c-0.1,0.3-0.2,0.6-0.2,0.9c0,0.3,0,0.7,0,1c0,0.6,0.1,1,0.3,1c0.1,0,0.2,0,0.3-0.1
			c0.2-0.1,0.3-0.2,0.4-0.3c0.5-0.5,0.8-0.8,1-0.9c0-0.1,0.1-0.2,0.3-0.3c0.1-0.2,0.3-0.4,0.5-0.5c0.2-0.3,0.4-0.5,0.5-0.5
			c0.2,0,0.3,0.1,0.3,0.3c0,0.1,0,0.2,0,0.2c-0.1,0.2-0.1,0.3-0.2,0.3c0,0,0,0,0,0.1c0,0,0,0,0,0.1c-0.2,0.1-0.3,0.3-0.5,0.5
			c-0.1,0.2-0.3,0.3-0.3,0.3c-0.1,0.1-0.1,0.2-0.1,0.2c0,0-0.2,0.2-0.5,0.5c-0.1,0.1-0.2,0.3-0.3,0.3s-0.2,0.2-0.3,0.3
			c-0.4,0.5-0.8,0.7-1.3,0.7c-0.5,0-0.8-0.3-1-1c-0.1-0.3-0.1-0.6-0.1-1c0-0.3,0-0.5,0-0.6l-0.1,0c-0.3,0.2-0.5,0.4-0.6,0.6
			l-0.4,0.4c0,0,0,0,0,0c-0.2,0.2-0.4,0.4-0.6,0.5c-0.2,0.2-0.4,0.3-0.4,0.3c0,0-0.1,0.1-0.2,0.2c-0.1,0.1-0.2,0.2-0.3,0.2
			C19.4,22.7,19.2,22.8,19.1,22.8z"/>
		<path class="st1" d="M26.2,23.7l-0.9-0.1c-0.5-0.1-0.7-0.1-0.8-0.3c-0.1-0.1-0.1-0.3-0.1-0.5c0-0.1,0-0.1,0.1-0.2
			c0.2-0.2,0.3-0.3,0.5-0.3h0.1c0.1,0,0.1,0,0.2-0.1c0-0.1,0.1-0.1,0.3-0.1l0.4,0c0.1,0,0.1,0,0.2,0.1c0,0,0.1,0,0.1,0.1
			c0,0,0,0.1,0,0.1c-0.1,0.1-0.1,0.2-0.1,0.3c0,0.1,0.2,0.1,0.5,0.1c1.2-0.1,1.8-0.4,1.9-0.8c0-0.1-0.1-0.2-0.2-0.6
			c-0.1-0.3-0.2-0.5-0.3-0.6c-0.1,0-0.3-0.3-0.7-0.8c-0.4-0.5-0.5-0.8-0.5-0.8c-0.1,0-0.1-0.2-0.1-0.7c0-0.3,0.1-0.6,0.3-0.8
			c0-0.1,0.1-0.2,0.1-0.3c0.1-0.1,0.1-0.2,0.2-0.3c0.6-0.7,0.9-1.1,1-1.1c0.1,0,0.1-0.1,0.2-0.2c0.3-0.3,0.5-0.5,0.8-0.5
			c0.3,0,0.5,0.3,0.6,0.8c0,0.3-0.3,0.6-0.7,0.8c-0.3,0.1-0.4,0.3-0.5,0.4c-0.1,0.1-0.3,0.4-0.5,0.8C28,18.4,28,18.4,28,18.5
			c0,0,0,0.1,0.1,0.2c0,0.1,0.1,0.2,0.1,0.2c0,0.1,0,0.1,0,0.1c0,0,0.1,0.1,0.1,0.2c0,0.1,0.1,0.2,0.1,0.2c0,0,0.1,0.1,0.3,0.4
			l0,0.2c0,0.1,0,0.1,0.1,0.1c0.1,0.1,0.2,0.2,0.2,0.3c0.1,0.1,0.1,0.2,0.2,0.2c0.1,0,0.2,0.2,0.4,0.5c0.1,0.2,0.2,0.4,0.2,0.5
			c0,0.7-0.2,1.2-0.6,1.3C28.1,23.4,27.1,23.7,26.2,23.7z"/>
	</g>
</g>
</svg>
